<?xml version="1.0" encoding="UTF-8"?>
<svg xmlns="http://www.w3.org/2000/svg" xmlns:xlink="http://www.w3.org/1999/xlink" width="100pt" height="100pt" viewBox="0 0 100 100" version="1.1">
<g id="surface1">
<rect x="0" y="0" width="100" height="100" style="fill:rgb(100%,100%,100%);fill-opacity:1;stroke:none;"/>
<path style="fill-rule:nonzero;fill:rgb(91.372549%,80.392157%,51.372549%);fill-opacity:0.501961;stroke-width:45;stroke-linecap:butt;stroke-linejoin:miter;stroke:rgb(91.372549%,80.392157%,51.372549%);stroke-opacity:1;stroke-miterlimit:4;" d="M 22.5 22.5 L 477.5 22.5 L 477.5 477.5 L 22.5 477.5 Z M 22.5 22.5 " transform="matrix(0.2,0,0,0.2,0,0)"/>
<path style=" stroke:none;fill-rule:nonzero;fill:rgb(83.529412%,50.588235%,32.156863%);fill-opacity:1;" d="M 44.65625 67.199219 L 22.386719 67.199219 C 21.78125 67.199219 21.328125 67.070312 21.042969 66.816406 C 20.789062 66.527344 20.65625 66.078125 20.65625 65.472656 L 20.65625 34.367188 C 20.65625 33.757812 20.789062 33.328125 21.042969 33.070312 C 21.328125 32.78125 21.78125 32.640625 22.386719 32.640625 L 44.65625 32.640625 C 45.265625 32.640625 45.699219 32.78125 45.953125 33.070312 C 46.242188 33.328125 46.386719 33.757812 46.386719 34.367188 L 46.386719 39.984375 C 46.386719 40.59375 46.242188 41.039062 45.953125 41.328125 C 45.699219 41.585938 45.265625 41.710938 44.65625 41.710938 L 31.410156 41.710938 L 31.410156 45.40625 L 40.773438 45.40625 C 41.378906 45.40625 41.8125 45.554688 42.066406 45.839844 C 42.355469 46.09375 42.5 46.527344 42.5 47.136719 L 42.5 52.273438 C 42.5 52.882812 42.355469 53.328125 42.066406 53.617188 C 41.8125 53.871094 41.378906 54 40.773438 54 L 31.410156 54 L 31.410156 58.128906 L 44.65625 58.128906 C 45.265625 58.128906 45.699219 58.273438 45.953125 58.5625 C 46.242188 58.816406 46.386719 59.25 46.386719 59.855469 L 46.386719 65.472656 C 46.386719 66.078125 46.242188 66.527344 45.953125 66.816406 C 45.699219 67.070312 45.265625 67.199219 44.65625 67.199219 Z M 70.785156 67.199219 L 63.007812 67.199219 C 62.398438 67.199219 61.953125 67.070312 61.664062 66.816406 C 61.410156 66.527344 61.28125 66.078125 61.28125 65.472656 L 61.28125 41.90625 L 54.226562 41.90625 C 53.617188 41.90625 53.171875 41.773438 52.882812 41.519531 C 52.625 41.234375 52.5 40.78125 52.5 40.175781 L 52.5 34.367188 C 52.5 33.757812 52.625 33.328125 52.882812 33.070312 C 53.171875 32.78125 53.617188 32.640625 54.226562 32.640625 L 79.570312 32.640625 C 80.179688 32.640625 80.609375 32.78125 80.867188 33.070312 C 81.152344 33.328125 81.296875 33.757812 81.296875 34.367188 L 81.296875 40.175781 C 81.296875 40.78125 81.152344 41.234375 80.867188 41.519531 C 80.609375 41.773438 80.179688 41.90625 79.570312 41.90625 L 72.515625 41.90625 L 72.515625 65.472656 C 72.515625 66.078125 72.367188 66.527344 72.082031 66.816406 C 71.828125 67.070312 71.390625 67.199219 70.785156 67.199219 Z M 70.785156 67.199219 "/>
<path style=" stroke:none;fill-rule:nonzero;fill:rgb(100%,100%,100%);fill-opacity:1;" d="M 42.066406 62.398438 L 42.066406 62.882812 L 25.890625 62.882812 L 25.890625 36.960938 L 42.066406 36.960938 L 42.066406 37.4375 L 26.371094 37.4375 L 26.371094 49.488281 L 38.179688 49.488281 L 38.179688 49.96875 L 26.371094 49.96875 L 26.371094 62.398438 Z M 66.65625 62.882812 L 66.65625 37.4375 L 56.816406 37.4375 L 56.816406 36.960938 L 76.976562 36.960938 L 76.976562 37.4375 L 67.136719 37.4375 L 67.136719 62.882812 Z M 66.65625 62.882812 "/>
<path style=" stroke:none;fill-rule:nonzero;fill:rgb(100%,100%,100%);fill-opacity:1;" d="M 42.066406 62.398438 L 42.867188 62.398438 L 42.867188 61.601562 L 42.066406 61.601562 Z M 42.066406 62.882812 L 42.066406 63.679688 L 42.867188 63.679688 L 42.867188 62.882812 Z M 25.890625 62.882812 L 25.089844 62.882812 L 25.089844 63.679688 L 25.890625 63.679688 Z M 25.890625 36.960938 L 25.890625 36.160156 L 25.089844 36.160156 L 25.089844 36.960938 Z M 42.066406 36.960938 L 42.867188 36.960938 L 42.867188 36.160156 L 42.066406 36.160156 Z M 42.066406 37.4375 L 42.066406 38.242188 L 42.867188 38.242188 L 42.867188 37.4375 Z M 26.371094 37.4375 L 26.371094 36.640625 L 25.570312 36.640625 L 25.570312 37.4375 Z M 26.371094 49.488281 L 25.570312 49.488281 L 25.570312 50.289062 L 26.371094 50.289062 Z M 38.179688 49.488281 L 38.976562 49.488281 L 38.976562 48.6875 L 38.179688 48.6875 Z M 38.179688 49.96875 L 38.179688 50.765625 L 38.976562 50.765625 L 38.976562 49.96875 Z M 26.371094 49.96875 L 26.371094 49.167969 L 25.570312 49.167969 L 25.570312 49.96875 Z M 26.371094 62.398438 L 25.570312 62.398438 L 25.570312 63.199219 L 26.371094 63.199219 Z M 41.265625 62.398438 L 41.265625 62.882812 L 42.867188 62.882812 L 42.867188 62.398438 Z M 42.066406 62.078125 L 25.890625 62.078125 L 25.890625 63.679688 L 42.066406 63.679688 Z M 26.691406 62.882812 L 26.691406 36.960938 L 25.089844 36.960938 L 25.089844 62.882812 Z M 25.890625 37.757812 L 42.066406 37.757812 L 42.066406 36.160156 L 25.890625 36.160156 Z M 41.265625 36.960938 L 41.265625 37.4375 L 42.867188 37.4375 L 42.867188 36.960938 Z M 42.066406 36.640625 L 26.371094 36.640625 L 26.371094 38.242188 L 42.066406 38.242188 Z M 25.570312 37.4375 L 25.570312 49.488281 L 27.171875 49.488281 L 27.171875 37.4375 Z M 26.371094 50.289062 L 38.179688 50.289062 L 38.179688 48.6875 L 26.371094 48.6875 Z M 37.378906 49.488281 L 37.378906 49.96875 L 38.976562 49.96875 L 38.976562 49.488281 Z M 38.179688 49.167969 L 26.371094 49.167969 L 26.371094 50.765625 L 38.179688 50.765625 Z M 25.570312 49.96875 L 25.570312 62.398438 L 27.171875 62.398438 L 27.171875 49.96875 Z M 26.371094 63.199219 L 42.066406 63.199219 L 42.066406 61.601562 L 26.371094 61.601562 Z M 66.65625 62.882812 L 65.859375 62.882812 L 65.859375 63.679688 L 66.65625 63.679688 Z M 66.65625 37.4375 L 67.457031 37.4375 L 67.457031 36.640625 L 66.65625 36.640625 Z M 56.816406 37.4375 L 56.015625 37.4375 L 56.015625 38.242188 L 56.816406 38.242188 Z M 56.816406 36.960938 L 56.816406 36.160156 L 56.015625 36.160156 L 56.015625 36.960938 Z M 76.976562 36.960938 L 77.777344 36.960938 L 77.777344 36.160156 L 76.976562 36.160156 Z M 76.976562 37.4375 L 76.976562 38.242188 L 77.777344 38.242188 L 77.777344 37.4375 Z M 67.136719 37.4375 L 67.136719 36.640625 L 66.335938 36.640625 L 66.335938 37.4375 Z M 67.136719 62.882812 L 67.136719 63.679688 L 67.9375 63.679688 L 67.9375 62.882812 Z M 67.457031 62.882812 L 67.457031 37.4375 L 65.859375 37.4375 L 65.859375 62.882812 Z M 66.65625 36.640625 L 56.816406 36.640625 L 56.816406 38.242188 L 66.65625 38.242188 Z M 57.617188 37.4375 L 57.617188 36.960938 L 56.015625 36.960938 L 56.015625 37.4375 Z M 56.816406 37.757812 L 76.976562 37.757812 L 76.976562 36.160156 L 56.816406 36.160156 Z M 76.179688 36.960938 L 76.179688 37.4375 L 77.777344 37.4375 L 77.777344 36.960938 Z M 76.976562 36.640625 L 67.136719 36.640625 L 67.136719 38.242188 L 76.976562 38.242188 Z M 66.335938 37.4375 L 66.335938 62.882812 L 67.9375 62.882812 L 67.9375 37.4375 Z M 67.136719 62.078125 L 66.65625 62.078125 L 66.65625 63.679688 L 67.136719 63.679688 Z M 67.136719 62.078125 "/>
</g>
</svg>
