<svg width="500" height="500" viewBox="0 0 500 500" fill="none" xmlns="http://www.w3.org/2000/svg">
<rect width="500" height="500" fill="white"/>
<rect x="22.5" y="22.5" width="455" height="455" fill="#E9CD83" fill-opacity="0.5" stroke="#E9CD83" stroke-width="45"/>
<path d="M223.294 336H111.934C108.894 336 106.654 335.36 105.214 334.08C103.934 332.64 103.294 330.4 103.294 327.36V171.84C103.294 168.8 103.934 166.64 105.214 165.36C106.654 163.92 108.894 163.2 111.934 163.2H223.294C226.334 163.2 228.494 163.92 229.774 165.36C231.214 166.64 231.934 168.8 231.934 171.84V199.92C231.934 202.96 231.214 205.2 229.774 206.64C228.494 207.92 226.334 208.56 223.294 208.56H157.054V227.04H203.854C206.894 227.04 209.054 227.76 210.334 229.2C211.774 230.48 212.494 232.64 212.494 235.68V261.36C212.494 264.4 211.774 266.64 210.334 268.08C209.054 269.36 206.894 270 203.854 270H157.054V290.64H223.294C226.334 290.64 228.494 291.36 229.774 292.8C231.214 294.08 231.934 296.24 231.934 299.28V327.36C231.934 330.4 231.214 332.64 229.774 334.08C228.494 335.36 226.334 336 223.294 336ZM353.926 336H315.046C312.006 336 309.766 335.36 308.326 334.08C307.046 332.64 306.406 330.4 306.406 327.36V209.52H271.126C268.086 209.52 265.846 208.88 264.406 207.6C263.126 206.16 262.486 203.92 262.486 200.88V171.84C262.486 168.8 263.126 166.64 264.406 165.36C265.846 163.92 268.086 163.2 271.126 163.2H397.846C400.886 163.2 403.046 163.92 404.326 165.36C405.766 166.64 406.486 168.8 406.486 171.84V200.88C406.486 203.92 405.766 206.16 404.326 207.6C403.046 208.88 400.886 209.52 397.846 209.52H362.566V327.36C362.566 330.4 361.846 332.64 360.406 334.08C359.126 335.36 356.966 336 353.926 336Z" fill="#D58152"/>
<path d="M210.334 312V314.4H129.454V184.8H210.334V187.2H131.854V247.44H190.894V249.84H131.854V312H210.334ZM333.286 314.4V187.2H284.086V184.8H384.886V187.2H335.686V314.4H333.286Z" fill="white"/>
<path d="M210.334 312H214.334V308H210.334V312ZM210.334 314.4V318.4H214.334V314.4H210.334ZM129.454 314.4H125.454V318.4H129.454V314.4ZM129.454 184.8V180.8H125.454V184.8H129.454ZM210.334 184.8H214.334V180.8H210.334V184.8ZM210.334 187.2V191.2H214.334V187.2H210.334ZM131.854 187.2V183.2H127.854V187.2H131.854ZM131.854 247.44H127.854V251.44H131.854V247.44ZM190.894 247.44H194.894V243.44H190.894V247.44ZM190.894 249.84V253.84H194.894V249.84H190.894ZM131.854 249.84V245.84H127.854V249.84H131.854ZM131.854 312H127.854V316H131.854V312ZM206.334 312V314.4H214.334V312H206.334ZM210.334 310.4H129.454V318.4H210.334V310.4ZM133.454 314.4V184.8H125.454V314.4H133.454ZM129.454 188.8H210.334V180.8H129.454V188.8ZM206.334 184.8V187.2H214.334V184.8H206.334ZM210.334 183.2H131.854V191.2H210.334V183.2ZM127.854 187.2V247.44H135.854V187.2H127.854ZM131.854 251.44H190.894V243.44H131.854V251.44ZM186.894 247.44V249.84H194.894V247.44H186.894ZM190.894 245.84H131.854V253.84H190.894V245.84ZM127.854 249.84V312H135.854V249.84H127.854ZM131.854 316H210.334V308H131.854V316ZM333.286 314.4H329.286V318.4H333.286V314.4ZM333.286 187.2H337.286V183.2H333.286V187.2ZM284.086 187.2H280.086V191.2H284.086V187.2ZM284.086 184.8V180.8H280.086V184.8H284.086ZM384.886 184.8H388.886V180.8H384.886V184.8ZM384.886 187.2V191.2H388.886V187.2H384.886ZM335.686 187.2V183.2H331.686V187.2H335.686ZM335.686 314.4V318.4H339.686V314.4H335.686ZM337.286 314.4V187.2H329.286V314.4H337.286ZM333.286 183.2H284.086V191.2H333.286V183.2ZM288.086 187.2V184.8H280.086V187.2H288.086ZM284.086 188.8H384.886V180.8H284.086V188.8ZM380.886 184.8V187.2H388.886V184.8H380.886ZM384.886 183.2H335.686V191.2H384.886V183.2ZM331.686 187.2V314.4H339.686V187.2H331.686ZM335.686 310.4H333.286V318.4H335.686V310.4Z" fill="white"/>
</svg>
